<svg
    fill="none"
    height="94"
    viewBox="0 0 299 94"
    width="299"
    xmlns="http://www.w3.org/2000/svg"
    >
    <path d="M0 28.5678V28.9249C0 28.8154 0.0286782 28.7059 0.0391068 28.5964L0 28.5678ZM33.8929 57.6035C33.5122 57.4288 33.1446 57.2255 32.8187 56.9622L1.47304 31.8137C0.490143 31.0185 0 29.973 0 28.9249V60.8312C0 66.155 2.84961 67.3073 2.84961 67.3073L33.0247 91.0297C33.5591 91.4495 34.0076 91.705 34.4013 91.8588C34.104 91.4051 33.8929 90.8811 33.8929 90.2841V57.6035ZM11.0204 58.5499C8.42889 58.5499 5.72007 55.9245 4.97443 52.6838C4.22618 49.4458 5.72268 46.8204 8.31157 46.8204C10.9031 46.8204 13.6119 49.4458 14.3575 52.6838C15.1058 55.9245 13.6119 58.5499 11.0204 58.5499V58.5499ZM25.5761 78.1035C22.9846 78.1035 20.2758 75.4755 19.5301 72.2374C18.7819 68.9967 20.2784 66.3713 22.8699 66.3713C25.4614 66.3713 28.1702 68.9967 28.9158 72.2374C29.6615 75.4755 28.1676 78.1035 25.5761 78.1035Z" fill="#4828D7" />
    <path d="M71.5269 31.5947L39.9701 56.9622C39.7042 57.1786 39.4122 57.3584 39.1071 57.5149V90.2841C39.1071 90.8915 38.8907 91.4234 38.5857 91.8848C38.9898 91.7336 39.4591 91.4677 40.0144 91.0297C44.762 87.2963 70.226 67.3073 70.226 67.3073C70.226 67.3073 73 66.1549 73 60.8312V28.7059C73 29.754 72.5098 30.7995 71.5269 31.5947V31.5947ZM52.0855 75.2148C51.4546 78.1791 49.1681 80.5803 46.9807 80.5803C44.7959 80.5803 43.5341 78.1791 44.165 75.2148C44.7959 72.2504 47.0798 69.8493 49.2672 69.8493C51.4546 69.8493 52.7138 72.2504 52.0855 75.2148ZM61.3096 61.4725C60.6473 64.5281 58.2383 67.0023 55.9336 67.0023C53.6315 67.0023 52.3045 64.5281 52.9667 61.4725C53.6315 58.4169 56.0405 55.9428 58.34 55.9428C60.6473 55.9428 61.9744 58.4169 61.3096 61.4725V61.4725ZM69.2952 48.1631C68.6408 51.07 66.2631 53.4217 63.9897 53.4217C61.7163 53.4217 60.4049 51.07 61.0619 48.1631C61.7163 45.2613 64.0914 42.9071 66.3648 42.9071C68.6408 42.9071 69.9522 45.2613 69.2952 48.1631V48.1631ZM72.9843 28.5808C72.9869 28.6225 73 28.6642 73 28.7059V28.5678L72.9843 28.5808Z" fill="#6D53DF" />
    <path d="M71.527 25.8172L39.8606 1.19277C37.8974 -0.397589 34.6776 -0.397589 32.7118 1.19277L1.47304 26.0362C0.591822 26.748 0.130357 27.6631 0.0364998 28.5991C0.0286784 28.7086 0 28.8154 0 28.9249C0 29.973 0.490143 31.0185 1.47304 31.8137L32.8187 56.9622C33.1446 57.2255 33.5096 57.4262 33.8929 57.6035V90.284C33.8929 90.8811 34.104 91.4051 34.3986 91.8588C34.8705 92.5888 35.6136 93.0945 36.5 93.0945C37.376 93.0945 38.1138 92.5992 38.5857 91.8848C38.8907 91.426 39.1071 90.8941 39.1071 90.284V57.5149C39.4122 57.3584 39.7042 57.1785 39.9701 56.9622L71.527 31.5947C72.5099 30.7995 73 29.754 73 28.7059C73 28.6642 72.987 28.6225 72.9844 28.5782C72.9479 27.5744 72.4681 26.5785 71.527 25.8172V25.8172ZM37.8036 22.4853C42.0011 22.4853 45.406 25.2072 45.406 28.5678C45.406 31.9284 42.0011 34.6502 37.8036 34.6502C33.6035 34.6502 30.2011 31.9284 30.2011 28.5678C30.2011 25.2072 33.6035 22.4853 37.8036 22.4853Z" fill="#311B92" />
    <path d="M37.8035 34.6502C42.0022 34.6502 45.4059 31.927 45.4059 28.5678C45.4059 25.2085 42.0022 22.4853 37.8035 22.4853C33.6048 22.4853 30.2011 25.2085 30.2011 28.5678C30.2011 31.927 33.6048 34.6502 37.8035 34.6502Z" fill="white" />
    <path d="M66.3648 42.907C64.0914 42.907 61.7163 45.2613 61.0619 48.163C60.4049 51.07 61.7163 53.4217 63.9897 53.4217C66.2631 53.4217 68.6409 51.07 69.2952 48.163C69.9522 45.2613 68.6409 42.907 66.3648 42.907V42.907ZM58.3426 55.9428C56.0405 55.9428 53.6315 58.4169 52.9693 61.4725C52.3071 64.5281 53.6341 67.0023 55.9362 67.0023C58.241 67.0023 60.65 64.5281 61.3122 61.4725C61.9744 58.4169 60.6474 55.9428 58.3426 55.9428ZM49.2646 69.8493C47.0772 69.8493 44.7933 72.2504 44.1624 75.2148C43.5315 78.1791 44.7933 80.5803 46.9781 80.5803C49.1655 80.5803 51.452 78.1791 52.0829 75.2148C52.7138 72.2504 51.452 69.8493 49.2646 69.8493V69.8493Z" fill="white" />
    <path d="M8.31158 46.8203C5.72008 46.8203 4.22618 49.4457 4.97443 52.6838C5.72268 55.9245 8.4289 58.5499 11.0204 58.5499C13.6119 58.5499 15.1058 55.9245 14.3575 52.6838C13.6119 49.4457 10.9031 46.8203 8.31158 46.8203ZM22.8673 66.3713C20.2758 66.3713 18.7819 68.9967 19.5275 72.2374C20.2758 75.4754 22.9846 78.1035 25.5761 78.1035C28.1676 78.1035 29.6615 75.4754 28.9158 72.2374C28.1676 68.9967 25.4588 66.3713 22.8673 66.3713Z" fill="#E1E8ED" />
    <path d="M104.159 54.1852H114.234V57.1481H111.863V67.5185C108.9 68.9012 105.819 69.5926 102.619 69.5926C98.036 69.5926 94.4804 68.1309 91.952 65.2074C89.4236 62.2444 88.1594 58.1753 88.1594 53C88.1594 47.8642 89.4631 43.8148 92.0705 40.8519C94.678 37.8889 98.1742 36.4074 102.559 36.4074C105.601 36.4074 108.703 37.0395 111.863 38.3037V45.8889H108.604V40.6148C106.866 39.9827 104.811 39.6667 102.441 39.6667C99.0434 39.6667 96.436 40.7531 94.6187 42.9259C92.8014 45.0593 91.8928 48.3383 91.8928 52.763C91.8928 57.3852 92.8409 60.8025 94.7372 63.0148C96.6335 65.2272 99.3002 66.3333 102.737 66.3333C104.554 66.3333 106.431 66.0568 108.367 65.5037V57.1481H104.159V54.1852ZM119.579 47.6074C122.305 46.0667 125.09 45.2963 127.935 45.2963C130.384 45.2963 132.26 45.8691 133.564 47.0148C134.907 48.121 135.579 49.8988 135.579 52.3481V66.037H138.542V69H132.379L132.201 66.3333L132.083 66.2741C130.186 68.4864 127.856 69.5926 125.09 69.5926C123.036 69.5926 121.396 69 120.172 67.8148C118.986 66.5901 118.394 65.0494 118.394 63.1926C118.394 60.7037 119.46 58.8469 121.594 57.6222C123.767 56.3975 126.907 55.7852 131.016 55.7852H132.023V52.2889C132.023 50.8272 131.668 49.8 130.957 49.2074C130.285 48.5753 129.139 48.2593 127.52 48.2593C125.584 48.2593 123.964 48.5753 122.66 49.2074V52.4074H119.579V47.6074ZM130.601 58.3333C127.875 58.3333 125.781 58.6889 124.32 59.4C122.858 60.0716 122.127 61.2765 122.127 63.0148C122.127 64.279 122.483 65.2074 123.194 65.8C123.905 66.3531 124.814 66.6296 125.92 66.6296C128.29 66.6296 130.325 65.6617 132.023 63.7259V58.3333H130.601ZM140.911 66.037H143.874V48.8519H140.911V45.8889H147.192L147.37 48.9704H147.429C149.523 46.521 151.913 45.2963 154.599 45.2963C157.444 45.2963 159.162 46.5407 159.755 49.0296H159.874C162.007 46.5407 164.456 45.2963 167.222 45.2963C169.197 45.2963 170.639 45.8691 171.548 47.0148C172.456 48.121 172.911 49.7012 172.911 51.7556V66.037H175.874V69H166.985V66.037H169.355V52.2296C169.355 50.6494 169.078 49.6025 168.525 49.0889C167.972 48.5358 167.202 48.2593 166.214 48.2593C164.081 48.2593 162.066 49.3654 160.17 51.5778V66.037H162.54V69H154.244V66.037H156.614V52.2296C156.614 50.6494 156.338 49.6025 155.785 49.0889C155.271 48.5358 154.54 48.2593 153.592 48.2593C151.34 48.2593 149.286 49.484 147.429 51.9333V66.037H149.799V69H140.911V66.037ZM195.408 64.5556V67.7556C193.433 68.9802 191.122 69.5926 188.475 69.5926C185.354 69.5926 182.905 68.5457 181.127 66.4519C179.389 64.358 178.519 61.4346 178.519 57.6815C178.519 53.8099 179.448 50.7877 181.305 48.6148C183.161 46.4025 185.492 45.2963 188.297 45.2963C190.589 45.2963 192.445 46.2049 193.868 48.0222C195.29 49.8395 196.001 52.4272 196.001 55.7852V57.6222H182.193C182.272 60.3877 182.806 62.5407 183.793 64.0815C184.821 65.6222 186.44 66.4321 188.653 66.5111C191.102 66.5111 193.354 65.8593 195.408 64.5556ZM192.445 54.7778C192.445 52.5259 192.03 50.8864 191.201 49.8593C190.371 48.7926 189.206 48.2593 187.705 48.2593C186.243 48.2593 185.018 48.8123 184.03 49.9185C183.043 50.9852 182.45 52.6049 182.253 54.7778H192.445ZM224.872 51.6963C226.966 52.2099 228.507 53.1778 229.495 54.6C230.482 56.0222 230.976 57.7012 230.976 59.637C230.976 62.5605 230.008 64.8519 228.072 66.5111C226.176 68.1704 223.233 69 219.243 69H208.457V66.037H212.013V39.963H208.457V37H219.302C222.857 37 225.485 37.6519 227.183 38.9556C228.882 40.2593 229.732 42.1358 229.732 44.5852C229.732 46.2444 229.336 47.6864 228.546 48.9111C227.796 50.0963 226.571 50.9852 224.872 51.5778V51.6963ZM219.361 66.037C222.008 66.037 223.964 65.563 225.228 64.6148C226.532 63.6272 227.183 61.9679 227.183 59.637C227.183 57.5827 226.571 56.0617 225.346 55.0741C224.161 54.0864 222.265 53.5926 219.657 53.5926H215.569V66.037H219.361ZM219.361 50.6296C223.786 50.6296 225.998 48.7926 225.998 45.1185C225.998 43.2617 225.445 41.9383 224.339 41.1481C223.233 40.358 221.475 39.963 219.065 39.963H215.569V50.6296H219.361ZM235.129 66.037H238.092V36.4074H235.129V33.4444H241.648V66.037H244.611V69H235.129V66.037ZM247.848 57.563C247.848 53.8099 248.756 50.8272 250.573 48.6148C252.43 46.4025 254.761 45.2963 257.566 45.2963C260.371 45.2963 262.603 46.3235 264.262 48.3778C265.961 50.4321 266.81 53.316 266.81 57.0296C266.81 60.8222 265.922 63.8642 264.144 66.1556C262.366 68.4469 260.035 69.5926 257.151 69.5926C254.307 69.5926 252.035 68.5062 250.336 66.3333C248.677 64.121 247.848 61.1975 247.848 57.563ZM251.581 57.0296C251.581 60.1506 252.075 62.5407 253.062 64.2C254.089 65.8198 255.551 66.6296 257.448 66.6296C259.225 66.6296 260.608 65.879 261.596 64.3778C262.583 62.837 263.077 60.5062 263.077 57.3852C263.077 51.3012 261.141 48.2593 257.27 48.2593C255.413 48.2593 253.991 48.9704 253.003 50.3926C252.055 51.7753 251.581 53.9877 251.581 57.0296ZM271.253 53.6519C271.253 51.2025 272.024 49.2074 273.564 47.6667C275.105 46.0864 277.08 45.2963 279.49 45.2963C280.359 45.2963 281.149 45.3951 281.861 45.5926C282.493 45.7901 283.204 45.8889 283.994 45.8889H289.624V48.7333H286.246V48.7926C286.996 50.0963 287.372 51.5383 287.372 53.1185C287.372 55.7259 286.601 57.8395 285.061 59.4593C283.559 61.079 281.604 61.8889 279.194 61.8889C278.088 61.8889 277.1 61.7309 276.231 61.4148C275.48 62.284 275.105 63.1136 275.105 63.9037C275.105 64.3778 275.263 64.7531 275.579 65.0296C275.895 65.3062 276.389 65.4444 277.061 65.4444H281.209C283.816 65.4444 285.811 65.9778 287.194 67.0444C288.616 68.1111 289.327 69.6914 289.327 71.7852C289.327 74.3531 288.3 76.4074 286.246 77.9481C284.191 79.4889 281.604 80.2593 278.483 80.2593C275.954 80.2593 273.92 79.6667 272.379 78.4815C270.838 77.2963 270.068 75.7753 270.068 73.9185C270.068 71.7852 271.135 69.8296 273.268 68.0519C272.32 67.2617 271.846 66.2346 271.846 64.9704C271.846 63.3901 272.695 61.8889 274.394 60.4667C272.3 58.8469 271.253 56.5753 271.253 53.6519ZM275.461 69C274.236 70.1852 273.624 71.5679 273.624 73.1481C273.624 74.4914 274.058 75.5383 274.927 76.2889C275.796 77.079 277.14 77.4741 278.957 77.4741C281.09 77.4741 282.749 77.0198 283.935 76.1111C285.159 75.242 285.772 74.0963 285.772 72.6741C285.772 71.4494 285.357 70.521 284.527 69.8889C283.737 69.2963 282.631 69 281.209 69H275.461ZM274.927 53.3556C274.927 55.1333 275.303 56.5358 276.053 57.563C276.804 58.5506 277.93 59.0444 279.431 59.0444C280.853 59.0444 281.92 58.5901 282.631 57.6815C283.342 56.7728 283.698 55.3901 283.698 53.5333C283.698 51.716 283.322 50.3926 282.572 49.563C281.861 48.6938 280.754 48.2593 279.253 48.2593C277.831 48.2593 276.745 48.6741 275.994 49.5037C275.283 50.3333 274.927 51.6173 274.927 53.3556Z" fill="white" />
</svg>