<svg xmlns="http://www.w3.org/2000/svg" viewBox="0 0 395.52 190.7914653803258" height="190.7914653803258" width="395.52"><g transform="matrix(1,0,0,1,0,115.20662594081926)"><svg viewBox="0 0 395.52 75.58483943950654" height="75.58483943950654" width="395.52"><g id="textblocktransform"><svg viewBox="0 0 395.52 75.58483943950654" height="75.58483943950654" width="395.52" id="textblock"><g><svg viewBox="0 0 395.52 45.529311897106105" height="45.529311897106105" width="395.52"><g transform="matrix(1,0,0,1,0,0)"><svg width="395.52" viewBox="2.4000000953674316 -35.400001525878906 310.9800109863281 35.80000305175781" height="45.529311897106105" data-palette-color="#ffffff"><path d="M29.5-6.3L29.5-17.7 34.3-17.7 34.3-4.05Q31.7-1.9 28.25-0.75 24.8 0.4 21.05 0.4L21.05 0.4Q15.75 0.4 11.5-1.93 7.25-4.25 4.83-8.33 2.4-12.4 2.4-17.5L2.4-17.5Q2.4-22.6 4.83-26.7 7.25-30.8 11.53-33.1 15.8-35.4 21.15-35.4L21.15-35.4Q25.35-35.4 28.78-34.02 32.2-32.65 34.6-30L34.6-30 31.5-26.9Q27.3-30.95 21.35-30.95L21.35-30.95Q17.35-30.95 14.18-29.23 11-27.5 9.2-24.43 7.4-21.35 7.4-17.5L7.4-17.5Q7.4-13.7 9.2-10.63 11-7.55 14.18-5.8 17.35-4.05 21.3-4.05L21.3-4.05Q26-4.05 29.5-6.3L29.5-6.3ZM70 0L66.15-8.75 47.55-8.75 43.7 0 38.55 0 54.4-35 59.35-35 75.25 0 70 0ZM49.3-12.75L64.4-12.75 56.85-29.9 49.3-12.75ZM117.7 0L112.9 0 112.84-25.5 100.2-4.25 97.9-4.25 85.25-25.35 85.25 0 80.45 0 80.45-35 84.55-35 99.15-10.4 113.55-35 117.65-35 117.7 0ZM133.19-4.35L153.59-4.35 153.59 0 128.19 0 128.19-35 152.89-35 152.89-30.65 133.19-30.65 133.19-19.9 150.74-19.9 150.74-15.65 133.19-15.65 133.19-4.35ZM198.69-18.15Q201.74-17.3 203.49-15.08 205.24-12.85 205.24-9.45L205.24-9.45Q205.24-4.9 201.81-2.45 198.39 0 191.84 0L191.84 0 175.14 0 175.14-35 190.84-35Q196.84-35 200.11-32.6 203.39-30.2 203.39-25.95L203.39-25.95Q203.39-23.2 202.11-21.2 200.84-19.2 198.69-18.15L198.69-18.15ZM190.39-30.95L180.14-30.95 180.14-19.75 190.39-19.75Q194.24-19.75 196.31-21.18 198.39-22.6 198.39-25.35L198.39-25.35Q198.39-28.1 196.31-29.53 194.24-30.95 190.39-30.95L190.39-30.95ZM191.64-4.05Q195.89-4.05 198.04-5.45 200.19-6.85 200.19-9.85L200.19-9.85Q200.19-15.7 191.64-15.7L191.64-15.7 180.14-15.7 180.14-4.05 191.64-4.05ZM212.98 0L212.98-35 217.98-35 217.98-4.35 236.94-4.35 236.94 0 212.98 0ZM257.83 0.4Q252.53 0.4 248.28-1.93 244.03-4.25 241.61-8.35 239.18-12.45 239.18-17.5L239.18-17.5Q239.18-22.55 241.61-26.65 244.03-30.75 248.28-33.08 252.53-35.4 257.83-35.4L257.83-35.4Q263.08-35.4 267.33-33.08 271.58-30.75 273.98-26.68 276.38-22.6 276.38-17.5L276.38-17.5Q276.38-12.4 273.98-8.33 271.58-4.25 267.33-1.93 263.08 0.4 257.83 0.4L257.83 0.4ZM257.83-4.05Q261.68-4.05 264.76-5.8 267.83-7.55 269.61-10.63 271.38-13.7 271.38-17.5L271.38-17.5Q271.38-21.3 269.61-24.38 267.83-27.45 264.76-29.2 261.68-30.95 257.83-30.95L257.83-30.95Q253.98-30.95 250.86-29.2 247.73-27.45 245.96-24.38 244.18-21.3 244.18-17.5L244.18-17.5Q244.18-13.7 245.96-10.63 247.73-7.55 250.86-5.8 253.98-4.05 257.83-4.05L257.83-4.05ZM308.28-6.3L308.28-17.7 313.08-17.7 313.08-4.05Q310.48-1.9 307.03-0.75 303.58 0.4 299.83 0.4L299.83 0.4Q294.53 0.4 290.28-1.93 286.03-4.25 283.61-8.33 281.18-12.4 281.18-17.5L281.18-17.5Q281.18-22.6 283.61-26.7 286.03-30.8 290.31-33.1 294.58-35.4 299.93-35.4L299.93-35.4Q304.13-35.4 307.56-34.02 310.98-32.65 313.38-30L313.38-30 310.28-26.9Q306.08-30.95 300.13-30.95L300.13-30.95Q296.13-30.95 292.96-29.23 289.78-27.5 287.98-24.43 286.18-21.35 286.18-17.5L286.18-17.5Q286.18-13.7 287.98-10.63 289.78-7.55 292.96-5.8 296.13-4.05 300.08-4.05L300.08-4.05Q304.78-4.05 308.28-6.3L308.28-6.3Z" opacity="1" transform="matrix(1,0,0,1,0,0)" fill="#ffffff" class="wordmark-text-0" data-fill-palette-color="primary" id="text-0"></path></svg></g></svg></g><g transform="matrix(1,0,0,1,0,56.27768973252733)"><svg viewBox="0 0 395.52 19.30714970697922" height="19.30714970697922" width="395.52"><g transform="matrix(1,0,0,1,0,0)"><svg width="395.52" viewBox="3.6500000953674316 -36.20000076293945 750.7999877929688 36.650001525878906" height="19.30714970697922" data-palette-color="#ffffff"><path d="M29.1-33.7L29.1 0 23.95 0 23.95-14.75 8.8-14.75 8.8 0 3.65 0 3.65-33.7 8.8-33.7 8.8-19.2 23.95-19.2 23.95-33.7 29.1-33.7ZM44.45-3.65L44.45-3.65Q46.85-3.65 48.23-4.98 49.6-6.3 49.6-8.45L49.6-8.45 49.6-11.3 45.8-11.3Q43-11.3 41.58-10.2 40.15-9.1 40.15-7.4L40.15-7.4Q40.15-5.65 41.25-4.65 42.35-3.65 44.45-3.65ZM49.75 0L49.75-3Q47.8 0.2 42.9 0.2L42.9 0.2Q39.3 0.2 37.13-1.88 34.95-3.95 34.95-7.15L34.95-7.15Q34.95-10.8 37.7-12.83 40.45-14.85 45.4-14.85L45.4-14.85 49.6-14.85 49.6-16.3Q49.6-18.9 48.35-20.23 47.1-21.55 44.2-21.55L44.2-21.55Q40.15-21.55 36.85-19.3L36.85-19.3 36.85-24.05Q39.8-25.75 44.65-25.75L44.65-25.75Q54.6-25.75 54.6-16.1L54.6-16.1 54.6 0 49.75 0ZM82.5-25.35L73.3 0 67.7 0 58.7-25.35 63.85-25.35 67.3-14.65Q68.5-10.95 69.33-8.25 70.15-5.55 70.35-4.7L70.35-4.7 70.55-3.85Q71-6.3 73.85-14.65L73.85-14.65 77.4-25.35 82.5-25.35ZM105.8-5.75L105.8-1.35Q103 0.25 98.4 0.25L98.4 0.25Q92.5 0.25 89-3.3 85.5-6.85 85.5-12.6L85.5-12.6Q85.5-18.7 88.7-22.18 91.9-25.65 96.85-25.65L96.85-25.65Q101.7-25.65 104.55-22.63 107.4-19.6 107.4-13.9L107.4-13.9Q107.4-12.35 107.1-10.65L107.1-10.65 90.45-10.65Q90.95-7.35 93.25-5.6 95.55-3.85 99.05-3.85L99.05-3.85Q103.1-3.85 105.8-5.75L105.8-5.75ZM96.95-21.6L96.95-21.6Q94.45-21.6 92.65-19.78 90.85-17.95 90.4-14.5L90.4-14.5 102.65-14.5 102.65-15.4Q102.55-18.25 101.1-19.93 99.65-21.6 96.95-21.6ZM137.8-25.35L137.8-21.55 132.45-21.55 132.45 0 127.55 0 127.55-21.55 123.5-21.55 123.5-25.35 127.55-25.35 127.55-27.3Q127.55-31.25 129.68-33.52 131.8-35.8 135.65-35.8L135.65-35.8Q137.05-35.8 138.5-35.4L138.5-35.4 138.5-31.1Q137.35-31.6 136.1-31.6L136.1-31.6Q132.45-31.6 132.45-27.25L132.45-27.25 132.45-25.35 137.8-25.35ZM162.8-25.35L162.8 0 157.9 0 157.9-4.35Q155.9 0.3 150 0.3L150 0.3Q146.25 0.3 144.05-1.93 141.85-4.15 141.85-8.05L141.85-8.05 141.85-25.35 146.8-25.35 146.8-9.25Q146.8-6.65 148.08-5.28 149.35-3.9 151.6-3.9L151.6-3.9Q154.45-3.9 156.18-5.9 157.9-7.9 157.9-11.55L157.9-11.55 157.9-25.35 162.8-25.35ZM190.65-17.15L190.65 0 185.75 0 185.75-16Q185.75-18.65 184.43-20.05 183.1-21.45 180.9-21.45L180.9-21.45Q178.3-21.45 176.45-19.43 174.6-17.4 174.6-13.75L174.6-13.75 174.6 0 169.7 0 169.7-25.35 174.6-25.35 174.6-21Q176.85-25.7 182.5-25.7L182.5-25.7Q186.25-25.7 188.45-23.4 190.65-21.1 190.65-17.15L190.65-17.15ZM222.85-8.3L220.55 0 215 0 207.05-25.35 212.25-25.35 214.6-16.95Q215.75-12.95 216.55-9.9 217.35-6.85 217.55-5.8L217.55-5.8 217.75-4.75Q218.4-7.9 221.05-17L221.05-17 223.5-25.35 228.25-25.35 230.75-17Q231.95-12.85 232.8-9.78 233.65-6.7 233.9-5.7L233.9-5.7 234.1-4.7Q234.7-7.65 237.5-17L237.5-17 240-25.35 244.95-25.35 236.9 0 231.3 0 228.95-8.3Q227.9-12.1 227.13-15.03 226.35-17.95 226.1-19L226.1-19 225.9-20Q225.2-16.75 222.85-8.3L222.85-8.3ZM254.5-25.35L254.5 0 249.55 0 249.55-25.35 254.5-25.35ZM255.1-33.1L255.1-33.1Q255.1-31.85 254.2-30.95 253.3-30.05 252-30.05 250.7-30.05 249.83-30.93 248.95-31.8 248.95-33.1 248.95-34.4 249.83-35.3 250.7-36.2 252-36.2 253.3-36.2 254.2-35.3 255.1-34.4 255.1-33.1ZM274.9-5.05L274.9-0.65Q273.25 0.25 270.85 0.25L270.85 0.25Q263 0.25 263-7.7L263-7.7 263-21.55 259.05-21.55 259.05-25.35 263-25.35 263-31.55 267.95-31.55 267.95-25.35 274.6-25.35 274.6-21.55 267.95-21.55 267.95-7.6Q267.95-3.95 271.45-3.95L271.45-3.95Q273.5-3.95 274.9-5.05L274.9-5.05ZM301.25-17L301.25 0 296.35 0 296.35-16Q296.35-18.6 295.03-20.03 293.7-21.45 291.55-21.45L291.55-21.45Q289.05-21.45 287.13-19.55 285.2-17.65 285.2-13.75L285.2-13.75 285.2 0 280.3 0 280.3-35.35 285.2-35.35 285.2-21Q287.35-25.7 293.05-25.7L293.05-25.7Q296.75-25.7 299-23.4 301.25-21.1 301.25-17L301.25-17ZM340.8-25.35L340.8 0 335.9 0 335.9-4.35Q333.9 0.3 328 0.3L328 0.3Q324.25 0.3 322.05-1.93 319.85-4.15 319.85-8.05L319.85-8.05 319.85-25.35 324.8-25.35 324.8-9.25Q324.8-6.65 326.08-5.28 327.35-3.9 329.6-3.9L329.6-3.9Q332.45-3.9 334.18-5.9 335.9-7.9 335.9-11.55L335.9-11.55 335.9-25.35 340.8-25.35ZM363.55-7L363.55-7Q363.55-3.6 361.15-1.68 358.75 0.25 354.65 0.25L354.65 0.25Q350.15 0.25 347.15-1.25L347.15-1.25 347.15-5.9Q350.65-3.75 354.4-3.75L354.4-3.75Q356.35-3.75 357.43-4.55 358.5-5.35 358.5-6.65L358.5-6.65Q358.5-7.75 357.65-8.63 356.8-9.5 355.93-9.93 355.05-10.35 352.95-11.25L352.95-11.25Q347-13.7 347-18.45L347-18.45Q347-21.8 349.5-23.7 352-25.6 355.75-25.6L355.75-25.6Q359.85-25.6 362.15-24.5L362.15-24.5 362.15-20.05Q359.7-21.5 355.85-21.5L355.85-21.5Q354.1-21.5 353.08-20.7 352.05-19.9 352.05-18.6L352.05-18.6Q352.05-18.25 352.13-17.93 352.2-17.6 352.4-17.28 352.6-16.95 352.78-16.73 352.95-16.5 353.35-16.25 353.75-16 353.98-15.83 354.2-15.65 354.73-15.4 355.25-15.15 355.5-15.03 355.75-14.9 356.38-14.63 357-14.35 357.25-14.25L357.25-14.25Q360.2-12.95 361.88-11.33 363.55-9.7 363.55-7ZM392.35-15.45L392.35-11.25 380.15-11.25 380.15-15.45 392.35-15.45ZM415.8-3.85L415.8 0 410.85 0 410.85-35.35 415.8-35.35 415.8-21.5Q418.5-25.7 423.45-25.7L423.45-25.7Q428.25-25.7 431.3-22.1 434.35-18.5 434.35-12.55L434.35-12.55Q434.35-7.2 431.45-3.43 428.55 0.35 423.5 0.35 418.45 0.35 415.8-3.85L415.8-3.85ZM415.8-12.85L415.8-12.85Q415.8-8.35 417.8-6.15 419.8-3.95 422.7-3.95L422.7-3.95Q425.5-3.95 427.4-6.33 429.3-8.7 429.3-12.45L429.3-12.45Q429.3-16.75 427.4-19.07 425.5-21.4 422.55-21.4L422.55-21.4Q419.95-21.4 417.88-19.3 415.8-17.2 415.8-12.85ZM458.75-5.75L458.75-1.35Q455.95 0.25 451.35 0.25L451.35 0.25Q445.45 0.25 441.95-3.3 438.45-6.85 438.45-12.6L438.45-12.6Q438.45-18.7 441.65-22.18 444.85-25.65 449.8-25.65L449.8-25.65Q454.65-25.65 457.5-22.63 460.35-19.6 460.35-13.9L460.35-13.9Q460.35-12.35 460.05-10.65L460.05-10.65 443.4-10.65Q443.9-7.35 446.2-5.6 448.5-3.85 452-3.85L452-3.85Q456.05-3.85 458.75-5.75L458.75-5.75ZM449.9-21.6L449.9-21.6Q447.4-21.6 445.6-19.78 443.8-17.95 443.35-14.5L443.35-14.5 455.6-14.5 455.6-15.4Q455.5-18.25 454.05-19.93 452.6-21.6 449.9-21.6ZM497.95-22.03Q501.1-18.35 501.1-12.65 501.1-6.95 497.88-3.25 494.65 0.45 489 0.45L489 0.45Q483.4 0.45 480.2-3.2 477-6.85 477-12.45L477-12.45Q477-18.15 480.3-21.93 483.6-25.7 489-25.7L489-25.7Q494.8-25.7 497.95-22.03ZM482.1-12.6L482.1-12.6Q482.1-8.85 483.95-6.28 485.8-3.7 489-3.7L489-3.7Q492.4-3.7 494.18-6.2 495.95-8.7 495.95-12.55L495.95-12.55Q495.95-16.5 494.25-19.03 492.55-21.55 488.95-21.55L488.95-21.55Q485.7-21.55 483.9-18.98 482.1-16.4 482.1-12.6ZM527.55-17.15L527.55 0 522.65 0 522.65-16Q522.65-18.65 521.33-20.05 520-21.45 517.8-21.45L517.8-21.45Q515.2-21.45 513.35-19.43 511.5-17.4 511.5-13.75L511.5-13.75 511.5 0 506.6 0 506.6-25.35 511.5-25.35 511.5-21Q513.75-25.7 519.4-25.7L519.4-25.7Q523.15-25.7 525.35-23.4 527.55-21.1 527.55-17.15L527.55-17.15ZM559.75-5.05L559.75-0.65Q558.1 0.25 555.7 0.25L555.7 0.25Q547.85 0.25 547.85-7.7L547.85-7.7 547.85-21.55 543.9-21.55 543.9-25.35 547.85-25.35 547.85-31.55 552.8-31.55 552.8-25.35 559.45-25.35 559.45-21.55 552.8-21.55 552.8-7.6Q552.8-3.95 556.3-3.95L556.3-3.95Q558.35-3.95 559.75-5.05L559.75-5.05ZM586.1-17L586.1 0 581.2 0 581.2-16Q581.2-18.6 579.88-20.03 578.55-21.45 576.4-21.45L576.4-21.45Q573.9-21.45 571.98-19.55 570.05-17.65 570.05-13.75L570.05-13.75 570.05 0 565.15 0 565.15-35.35 570.05-35.35 570.05-21Q572.2-25.7 577.9-25.7L577.9-25.7Q581.6-25.7 583.85-23.4 586.1-21.1 586.1-17L586.1-17ZM611.6-5.75L611.6-1.35Q608.8 0.25 604.2 0.25L604.2 0.25Q598.3 0.25 594.8-3.3 591.3-6.85 591.3-12.6L591.3-12.6Q591.3-18.7 594.5-22.18 597.7-25.65 602.65-25.65L602.65-25.65Q607.5-25.65 610.35-22.63 613.2-19.6 613.2-13.9L613.2-13.9Q613.2-12.35 612.9-10.65L612.9-10.65 596.25-10.65Q596.75-7.35 599.05-5.6 601.35-3.85 604.85-3.85L604.85-3.85Q608.9-3.85 611.6-5.75L611.6-5.75ZM602.75-21.6L602.75-21.6Q600.25-21.6 598.45-19.78 596.65-17.95 596.2-14.5L596.2-14.5 608.45-14.5 608.45-15.4Q608.35-18.25 606.9-19.93 605.45-21.6 602.75-21.6ZM644.55-8.3L642.25 0 636.7 0 628.75-25.35 633.95-25.35 636.3-16.95Q637.45-12.95 638.25-9.9 639.05-6.85 639.25-5.8L639.25-5.8 639.45-4.75Q640.1-7.9 642.75-17L642.75-17 645.2-25.35 649.95-25.35 652.45-17Q653.65-12.85 654.5-9.78 655.35-6.7 655.6-5.7L655.6-5.7 655.8-4.7Q656.4-7.65 659.2-17L659.2-17 661.7-25.35 666.65-25.35 658.6 0 653 0 650.65-8.3Q649.6-12.1 648.83-15.03 648.05-17.95 647.8-19L647.8-19 647.6-20Q646.9-16.75 644.55-8.3L644.55-8.3ZM679.25-3.65L679.25-3.65Q681.65-3.65 683.02-4.98 684.4-6.3 684.4-8.45L684.4-8.45 684.4-11.3 680.6-11.3Q677.8-11.3 676.38-10.2 674.95-9.1 674.95-7.4L674.95-7.4Q674.95-5.65 676.05-4.65 677.15-3.65 679.25-3.65ZM684.55 0L684.55-3Q682.6 0.2 677.7 0.2L677.7 0.2Q674.1 0.2 671.93-1.88 669.75-3.95 669.75-7.15L669.75-7.15Q669.75-10.8 672.5-12.83 675.25-14.85 680.2-14.85L680.2-14.85 684.4-14.85 684.4-16.3Q684.4-18.9 683.15-20.23 681.9-21.55 679-21.55L679-21.55Q674.95-21.55 671.65-19.3L671.65-19.3 671.65-24.05Q674.6-25.75 679.45-25.75L679.45-25.75Q689.4-25.75 689.4-16.1L689.4-16.1 689.4 0 684.55 0ZM717.3-25.35L708.1 0 702.5 0 693.5-25.35 698.65-25.35 702.1-14.65Q703.3-10.95 704.13-8.25 704.95-5.55 705.15-4.7L705.15-4.7 705.35-3.85Q705.8-6.3 708.65-14.65L708.65-14.65 712.2-25.35 717.3-25.35ZM740.6-5.75L740.6-1.35Q737.8 0.25 733.2 0.25L733.2 0.25Q727.3 0.25 723.8-3.3 720.3-6.85 720.3-12.6L720.3-12.6Q720.3-18.7 723.5-22.18 726.7-25.65 731.65-25.65L731.65-25.65Q736.5-25.65 739.35-22.63 742.2-19.6 742.2-13.9L742.2-13.9Q742.2-12.35 741.9-10.65L741.9-10.65 725.25-10.65Q725.75-7.35 728.05-5.6 730.35-3.85 733.85-3.85L733.85-3.85Q737.9-3.85 740.6-5.75L740.6-5.75ZM731.75-21.6L731.75-21.6Q729.25-21.6 727.45-19.78 725.65-17.95 725.2-14.5L725.2-14.5 737.45-14.5 737.45-15.4Q737.35-18.25 735.9-19.93 734.45-21.6 731.75-21.6ZM753.45-33.7L753.45-10.7 748.65-10.7 748.65-33.7 753.45-33.7ZM754.45-3L754.45-3Q754.45-1.55 753.45-0.58 752.45 0.4 751 0.4 749.55 0.4 748.58-0.58 747.6-1.55 747.6-3 747.6-4.45 748.58-5.45 749.55-6.45 751-6.45L751-6.45Q752.4-6.45 753.43-5.43 754.45-4.4 754.45-3Z" opacity="1" transform="matrix(1,0,0,1,0,0)" fill="#ffffff" class="slogan-text-1" data-fill-palette-color="secondary" id="text-1"></path></svg></g></svg></g></svg></g></svg></g><g transform="matrix(1,0,0,1,127.14965662771579,0)"><svg viewBox="0 0 141.2206867445684 104.45824810539804" height="104.45824810539804" width="141.2206867445684"><g><svg xmlns="http://www.w3.org/2000/svg" xmlns:xlink="http://www.w3.org/1999/xlink" version="1.1" x="7.999999999999993" y="0" viewBox="1.496999979019165 8 97.10699462890625 81.00599670410156" enable-background="new 0 0 100 100" xml:space="preserve" height="104.45824810539804" width="125.22068674456843" class="icon-icon-0" data-fill-palette-color="accent" id="icon-0"><g fill="#4848d0" data-fill-palette-color="accent"><polygon fill="#4848d0" points="9.598,89.006 98.604,89.006 98.604,16.101 58.201,16.101 58.201,24.201 90.503,24.201    90.503,80.905 17.698,80.905 17.698,56.604 9.598,56.604  " data-fill-palette-color="accent"></polygon><path fill="#4848d0" d="M1.497 48.503h8.101v-8.101h8.101v8.101h8.101v-8.101h8.101v8.101H42v-8.101h8.101v8.101h8.101V32.302h-8.101V16.101H42V8h-8.101v8.101h-8.101V8h-8.101v8.101H9.598v16.201H1.497V48.503zM17.698 32.302v-8.101h8.101v8.101H17.698zM33.899 32.302v-8.101H42v8.101H33.899z" data-fill-palette-color="accent"></path></g></svg></g></svg></g><g><rect width="127.14965662771579" height="4.105880333130907" y="99.35236777226713" x="268.3703433722842" fill="#4848d0" data-fill-palette-color="accent"></rect><rect width="127.14965662771579" height="4.105880333130907" y="99.35236777226713" x="0" fill="#4848d0" data-fill-palette-color="accent"></rect><rect width="127.14965662771579" height="4.105880333130907" y="91.14060710600532" x="268.3703433722842" fill="#4848d0" data-fill-palette-color="accent"></rect><rect width="127.14965662771579" height="4.105880333130907" y="91.14060710600532" x="0" fill="#4848d0" data-fill-palette-color="accent"></rect></g></svg>